# xmcd
#
# Track frame offsets:
#	150
#	17102
#	39582
#	68725
#	101382
#	129912
#	147327
#	173110
#	215260
#	251622
#	278752
#	304037
#
# Disc length: 4369 seconds
#
# Revision: 2
# Processed by: cddbd v1.4PL0 Copyright (c) Steve Scherf et al.
# Submitted via: dBpowerAMP V4.0
#
DISCID=a1110f0c
DTITLE=Reidar Larsen - Statement
DYEAR=1900
DGENRE=blues
TTITLE0=Mr. Blues is comming to town
TTITLE1=Don't turn away
TTITLE2=Blues Medley
TTITLE3=Mother earth
TTITLE4=Big fat mama
TTITLE5=Hole in the wall
TTITLE6=It hurts me too
TTITLE7=Statement/sunnyland
TTITLE8=Have a little talk with yourslef
TTITLE9=I have done no one no harm
TTITLE10=Grab a hold
TTITLE11=Lean on me
EXTD=
EXTT0=
EXTT1=
EXTT2=
EXTT3=
EXTT4=
EXTT5=
EXTT6=
EXTT7=
EXTT8=
EXTT9=
EXTT10=
EXTT11=
PLAYORDER=
